/* XPM */
static char *result[] = {
/* columns rows colors chars-per-pixel */
"50 50 56 1 ",
"  c #455A64",
". c #465A64",
"X c #475B64",
"o c #475C64",
"O c #485B64",
"+ c #4A5E64",
"@ c #4B5F65",
"# c #556165",
"$ c #546665",
"% c #556765",
"& c #566866",
"* c #576866",
"= c #616565",
"- c #636566",
"; c #667467",
": c #687667",
"> c #887868",
", c #8D7B68",
"< c #947F69",
"1 c #977F69",
"2 c #978168",
"3 c #978069",
"4 c #978169",
"5 c #988069",
"6 c #988169",
"7 c #AD8D6B",
"8 c #B3916B",
"9 c #B4926C",
"0 c #C59C6B",
"q c #C29A6E",
"w c #C39A6E",
"e c #C39B6E",
"r c #C49A6D",
"t c #C59A6D",
"y c #C69B6C",
"u c #C69B6D",
"i c #C49B6E",
"p c #C59B6E",
"a c #C69B6E",
"s c #C79B6E",
"d c #C49C6C",
"f c #C59C6C",
"g c #C49C6D",
"h c #C59C6D",
"j c #C69C6C",
"k c #C49C6E",
"l c #C59C6E",
"z c #C59D6E",
"x c #C59C6F",
"c c #C59D6F",
"v c #C69C6F",
"b c #C69D6F",
"n c #FAED75",
"m c #FFF176",
"M c #607D8B",
"N c #FFFDA6",
/* pixels */
"hhf000ffffffddggggkkkkkklllllpaasaaprrrrrixxxbbbcc",
"hhf000fffffffdgggggkkkkkllllppassaaptrrrripxxvbbcc",
"uujfffjjjfffff                      ttttttaaalllcc",
"uuyfffjyyffff  MMMMMMMMMMMMMMMMMMMM  tttttasapplcc",
"uuyfffyyyffff MMMMMMMMMMMMMMMMMMMMMM tttttasapplcc",
"uuyfffyyyfff6 MM                     5ttttasapplcc",
"uyyfffyyyfff2 NNmmmmmmmmmmmmmmmmmmmm 1ttttasapplcc",
"uuyfffyyuhhh4 NNmmmmmmmmmmmmmmmmmmmm 1ttttaaapplzc",
"lhhffffhhhhh4 NNmmmmmmmmmmmmmmmmmmmm 3ppppppppllll",
"llhfffhhhhhh4 NNmmmmmmmmmmmmmmmmmmmm 3ppppppplllll",
"llhhhhhhllll4 NNmmmmmmmmmmmmmmmmmmmm 4llllllllllll",
"llhhhhhhllll4 NNmmmmmmmmmmmmmmmmmmmm 4llllllllllll",
"llhhhhhhllll4 NNmmmmmmmmmmmmmmmmmmmm 4llllllllllll",
"lllhhhhlllll4 NNmmmmmmmmmmmmmmmmmmmm 4llllllllllll",
"lllhhh  llll4 NNmmmmmmmmmmmmmmmmmmmm 4llll  llllll",
"lllllll  lll4 NNmmmmmmmmmmmmmmmmmmmm 4lll  lllllll",
"llllllll  ll4 NNmmmmmmmmmmmmmmmmmmmm 4ll  llllllll",
"lllllllll<ll4 NNmmmmmmmmmmmmmmmmmmmm 4ll8lllllllll",
"llllllllllll4 NNmmmmmmmmmmmmmmmmmmmm 4llllllllllll",
"llllllllllll4 NNmmmmmmmmmmmmmmmmmmmm 4llllllllllll",
"lll=llllllll4 NNmmmm  mmmmmm  mmmmmm 4llllllll,lll",
"llw    lllll4 NNmmmm$ mmmmmm %mmmmmm 4lllll    .ll",
"lllll. lllll4 NNmmmmmmmmmmmmmmmmmmmm 4lllll  lllll",
"llllllllllll4 NNmmmmmmmmmmmmmmmmmmmm 4llllllllllll",
"llllllllllll4 NNmmmmmmmmmmmmmmmmmmmm 4llllllllllll",
"llllllllllll4 NNmmmmmmmmmmmmmmmmmmmm 4llllllllllll",
"llllllllllll4 NNmmmmmmmmmmmmmmmmmmmm 4llllllllllll",
"lllll> lllll4 NNmm @mmmmmmmmmm+ mmmm 4lllll.Olllll",
"lli    lllll4 NNmm* ommmmmmmmX &mmmm 4lllll    -ll",
"lll llllllll4 NNmmm;   nmmn   :mmmmm 4llllllll#ell",
"llllllllllll4 NNmmmmm        mmmmmmm 4llllllllllll",
"llllllllllll4 NNmmmmmmmmmmmmmmmmmmmm 4llllllllllll",
"lllllllll9ll4 NNmmmmmmmmmmmmmmmmmmmm 4llqlllllllll",
"llllllll  ll4 NNmmmmmmmmmmmmmmmmmmmm 4ll  llllllll",
"lllllll  cll4 NNmmmmmmmmmmmmmmmmmmmm 4lll  lllllll",
"llllll  llll4 NNmmmmmmmmmmmmmmmmmmmm 4llll  llllll",
"llllllllllll4 NNmmmmmmmmmmmmmmmmmmmm 4llllllllllll",
"llllllllllll4 NNmmmmmmmmmmmmmmmmmmmm 4llllllllllll",
"llllllllllll4 NNmmmmmmmmmmmmmmmmmmmm 4llllllllllll",
"llllllllllll4 NNmmmmmmmmmmmmmmmmmmmm 4llllllllllll",
"llllllllllll4 NNmmmmmmmmmmmmmmmmmmmm 4llllllllllll",
"llllllllllll4 NNmmmmmmmmmmmmmmmmmmmm 4llllllllllll",
"llllllllllll4 NNmmmmmmmmmmmmmmmmmmmm 4llllllllllll",
"llllllllllll4 NNmmmmmmmmmmmmmmmmmmmm 4llllllllllll",
"llllllllllll4 MM                     4llllllllllll",
"lllllllllllll MM                     lllllllllllll",
"lllllllllllll  M                     lllllllllllll",
"llllllllllllll                      llllllllllllll",
"llllllllllllllll777777777777777777llllllllllllllll",
"llllllllllllllllllllllllllllllllllllllllllllllllll"
};
