/* XPM */
static char *result[] = {
/* columns rows colors chars-per-pixel */
"50 50 68 1 ",
"  c #08B865",
". c #00C27A",
"X c #C59C6B",
"o c #C29B6E",
"O c #C39B6E",
"+ c #C49A6D",
"@ c #C59A6D",
"# c #C69B6C",
"$ c #C69A6D",
"% c #C69B6D",
"& c #C49B6E",
"* c #C59B6E",
"= c #C69B6E",
"- c #C79B6E",
"; c #C19D6D",
": c #C39C6D",
"> c #C29D6D",
", c #C19D6E",
"< c #C19D6F",
"1 c #C29C6F",
"2 c #C39C6F",
"3 c #C29D6F",
"4 c #C19E6E",
"5 c #C49C6C",
"6 c #C59C6C",
"7 c #C49D6C",
"8 c #C49C6D",
"9 c #C59C6D",
"0 c #C49D6D",
"q c #C69C6C",
"w c #C49C6E",
"e c #C59C6E",
"r c #C49C6F",
"t c #C59C6F",
"y c #C59D6F",
"u c #C69C6F",
"i c #C69D6F",
"p c #39C884",
"a c #39C885",
"s c #46CC8D",
"d c #4BCD90",
"f c #55D096",
"g c #83DBB3",
"h c #84DBB4",
"j c #8DDDB9",
"k c #90DEBB",
"l c #93DFBD",
"z c #99E0C1",
"x c #9BE1C2",
"c c #9CE1C3",
"v c #9FE2C4",
"b c #A1E2C6",
"n c #A9E4CA",
"m c #B7E8D4",
"M c #BAE8D5",
"N c #BCE8D6",
"B c #C1EADA",
"V c #C7EBDD",
"C c #CEEDE2",
"Z c #D0EDE3",
"A c #D2EEE4",
"S c #DBF1EA",
"D c #E0F1ED",
"F c #E2F2EF",
"G c #E5F3F0",
"H c #E9F4F3",
"J c #EAF4F3",
"K c #EEF5F6",
/* pixels */
"996XXX666666558888wwwwwweeeee*==-==*+++++&tttiiiyy",
"996XXX6666666588888wwwwweeee**=--==*@++++&*ttuiiyy",
"%%q666qqq66666577088wwwwee*===---===@@@@@@===eeeyy",
"%%#666q##66666677088wwwwee*==-------$@@@@@=-=**eyy",
"%%#666###66666677088wwwwee*==-------$@@@@@=-=**eyy",
"%%#666###66666677088wwwwee*==-------$@@@@@=-=**eyy",
"%##>>>:::>>>>>>;44,<<<<<33122rrrrrrrOooooo2r211eyy",
"%................................................y",
"..................................................",
"..KKKKKKKKKKKKKKKKKKKKKKKKKKKKKKKKKKKKKKKKKKKKKK..",
"..KKssssssssssssssssssssssssssssssssssssssssssKK..",
"..KKssssssssssssssssssssssssssssssssssssssssssKK..",
"..KKs  ssssssssssssssssssssssssssssssssssss  sKK..",
"..KKsspssssssssssssslssssscssshssgbbbbbssssassKK..",
"..KKssssssssKKKKKsssKKsssCKsssKssKKKKKKsssssssKK..",
"..KKssssssssKmssssssfKdssKNsssKssssKKsssssssssKK..",
"..KKssssssssKmsssssssKKsKKssssKssssKKsssssssssKK..",
"..KKssssssssKmssssssssKKKsssssKssssKKsssssssssKK..",
"..KKssssssssKKKKKssssssKvsssssKssssKKsssssssssKK..",
"..KKssssssssKGAAnsssssKKKsssssKssssKKsssssssssKK..",
"..KKssssssssKmsssssssKKsKKssssKssssKKsssssssssKK..",
"..KKssssssssKmsssssskKsssKJsssKssssKKsssssssssKK..",
"..KKssssssssKmssssssKHsssjKsssKssssKKsssssssssKK..",
"..KKssssssssKKKKKssSKsssssKKssKssssDKsssssssssKK..",
"..KKssssssssssssssssssssssssssssssssssssssssssKK..",
"..KKssssssssssssssssssssssssssssssssssssssssssKK..",
"..KKssssssssssssssssssssssssssssssssssssssssssKK..",
"..KKsssssssssssssssssssssssssxssssssssssssssssKK..",
"..KKsssssssssssssssssssssssssKKZssssssssssssssKK..",
"..KKsssssssssssssssssssssssssKKKKsssssssssssssKK..",
"..KKsssssssssszzzzzzzzzzzzzzzKKKKKVsssssssssssKK..",
"..KKssssssssssKKKKKKKKKKKKKKKKKKKKKKssssssssssKK..",
"..KKssssssssssKKKKKKKKKKKKKKKKKKKKKKKsssssssssKK..",
"..KKssssssssssKKKKKKKKKKKKKKKKKKKKKKssssssssssKK..",
"..KKssssssssssMMMMMMMMMMMMMMMKKKKKFsssssssssssKK..",
"..KKsssssssssssssssssssssssssKKKKsssssssssssssKK..",
"..KKsspssssssssssssssssssssssKKFssssssssssspssKK..",
"..KKs  ssssssssssssssssssssssBsssssssssssss  sKK..",
"..KKssssssssssssssssssssssssssssssssssssssssssKK..",
"..KKssssssssssssssssssssssssssssssssssssssssssKK..",
"..KKKKKKKKKKKKKKKKKKKKKKKKKKKKKKKKKKKKKKKKKKKKKK..",
"..................................................",
"e................................................e",
"eee33333333333333333333333333333333333333333333eee",
"eeeeeeeeeeeeeeeeeeeeeeeeeeeeeeeeeeeeeeeeeeeeeeeeee",
"eeeeeeeeeeeeeeeeeeeeeeeeeeeeeeeeeeeeeeeeeeeeeeeeee",
"eeeeeeeeeeeeeeeeeeeeeeeeeeeeeeeeeeeeeeeeeeeeeeeeee",
"eeeeeeeeeeeeeeeeeeeeeeeeeeeeeeeeeeeeeeeeeeeeeeeeee",
"eeeeeeeeeeeeeeeeeeeeeeeeeeeeeeeeeeeeeeeeeeeeeeeeee",
"eeeeeeeeeeeeeeeeeeeeeeeeeeeeeeeeeeeeeeeeeeeeeeeeee"
};
