/* XPM */
static char *result[] = {
/* columns rows colors chars-per-pixel */
"50 50 79 1 ",
"  c #3E4356",
". c #3F4458",
"X c #4C4A58",
"o c #514C58",
"O c #524E59",
"+ c #454A61",
"@ c #464A61",
"# c #474B63",
"$ c #4A4D63",
"% c #605964",
"& c #645A64",
"* c #645B64",
"= c #685C65",
"- c #6D6065",
"; c #6F6265",
": c #706165",
"> c #766866",
", c #B53C3C",
"< c #F44B34",
"1 c #897161",
"2 c #937762",
"3 c #9E7F65",
"4 c #937868",
"5 c #9B7D68",
"6 c #CC4444",
"7 c #F85A49",
"8 c #F95C4B",
"9 c #F95D4C",
"0 c #F96252",
"q c #F96A5B",
"w c #F96C5D",
"e c #F87061",
"r c #F97163",
"t c #AB8A6B",
"y c #B38F6A",
"u c #B58F68",
"i c #B58E6C",
"p c #BF966D",
"a c #C59C6B",
"s c #C49A6D",
"d c #C59A6D",
"f c #C69B6C",
"g c #C69A6D",
"h c #C69B6D",
"j c #C49B6E",
"k c #C59B6E",
"l c #C69B6E",
"z c #C79B6E",
"x c #C59C6C",
"c c #C49C6D",
"v c #C59C6D",
"b c #C49D6D",
"n c #C59D6D",
"m c #C69C6C",
"M c #C49C6E",
"N c #C59C6E",
"B c #C59D6E",
"V c #C59C6F",
"C c #C59D6F",
"Z c #C69C6F",
"A c #C69D6F",
"S c #F79A8F",
"D c #F79B91",
"F c #F7A097",
"G c #F6AFA7",
"H c #F6BAB3",
"J c #F6C8C4",
"K c #F6D7D3",
"L c #F5DFDC",
"P c #F5DFDD",
"I c #E3E5E5",
"U c #F6E3E1",
"Y c #F5EAE9",
"T c #F5ECEB",
"R c #F5EEED",
"E c #F5F0F0",
"W c #F5F2F2",
"Q c #F5F4F4",
"! c gray96",
/* pixels */
"vvxaaaxxxxx   #cccMMMMMMNNNNNkllzll  .#ssjVVVAAACC",
"vvxaaaxxxx  +###tccMMMMMNNNNkklzz3  ####sjkVVZAACC",
"hhmxxxmmm   #####bccMMMMNNklllzzz   #####dlllNNNCC",
"hhfxxxmfu  *xxy##>ccMMMMNNkllzzzo  igd&##plzlkkNCC",
"hhfxxxffo  xxxx###ccMMMMNNkllzzz   zgdd##-lzlkkNCC",
"hhfxxxff2  nxxx###ccMMMMNNkllzzz   zgdk##5lzlkkNCC",
"hffxxxfff  .$;###bcMMMMMNNkllzzzz  @:$###dlzlkkNCC",
"hhfxxxffhO  #####cMMMMMMNNkllllll   ####=dlllkkNBC",
"Nvvxxxxvvv1  ##%vNNNNNNNNNNkkkkkkkX  ##4kkkkkkNNNN",
"NNvxxxvvvvvvIIvvNNNNNNNNNNNkkkkkkkkkIIkkkkkkkNNNNN",
"NNvvvvvvNNNNIINNNNNNNNNNNNNNNNNNNNNNIINNNNNNNNNNNN",
"NNvvvvvvNNNNIINNNNNNNNNNNNNNNNNNNNNNIINNNNNNNNNNNN",
"NNvvvvvvNNNNIINNNNNNNNNNNNNNNNNNNNNNIINNNNNNNNNNNN",
"NNNvvvvNNNNNIINNNNNNNNNNNNNNNNNNNNNNIINNNNNNNNNNNN",
"NNNvvvNNNNNNIINNNNNNNNNNNNNNNNNNNNNNIINNNNNNNNNNNN",
"NNNNNNNNNNNNIINNNNNNNNNNNNNNNNNNNNNNIINNNNNNNNNNNN",
"NNNNNNNNNNNNIINNNNNNNNNNNNNNNNNNNNNNIINNNNNNNNNNNN",
"NNNNNNNNNNNNIINNNNNNNNNNNNNNNNNNNNNNIINNNNNNNNNNNN",
"NNNNNNNNNNNNIINNNNNNNNNNNNNNNNNNNNNNIINNNNNNNNNNNN",
"N,,,666666666666666666666666666666666666666666666N",
",,,66666666666666666666666666666666666666666666666",
",,,66666666666666666666666666666666666666666666666",
",,,<<888888888888888888888888888888888888888888666",
",,,<<888888888888888888888888888888888888888888666",
",,,<<888888888888888888888888888888888888888888666",
",,,<<888888888888888888888888888888888888888888666",
",,,<<888888888888888888888888888888888888888888666",
",,,<<888888888888888888888888888888888888888888666",
",,,<<888888888888888888888888888888888888888888666",
",,,<<888!!!!!!!88!!!8880!!w88!!F8S!!!!!!!!88888666",
",,,<<888!!!!!!!888!!!88!!!888!!P8H!!!!!!!!88888666",
",,,<<888!!!!!!!888Q!!8L!!8888!!P8D!!!!!!!!88888666",
",,,<<888!!J88888888!!!!!!8888!!P8888G!!88888888666",
",,,<<888!!WYYY888889!!!!88888!!P8888G!!88888888666",
",,,<<888!!!!!!888888!!!988888!!P8888G!!88888888666",
",,,<<888!!TKKK888888!!!!88888!!P8888G!!88888888666",
",,,<<888!!J88888888!!!!!Q8888!!P8888G!!88888888666",
",,,<<888!!!!!!!888E!!8R!!8888!!P8888G!!88888888666",
",,,<<888!!!!!!!888!!!88!!!888!!P8888G!!88888888666",
",,,<<888!!!!!!!88U!!888r!!888!!q8888e!!88888888666",
",,,<<888888888888888888888888888888888888888888666",
",,,<<888888888888888888888888888888888888888888666",
",,,<<888888888888888888888888888888888888888888666",
",,,<<888888888888888888888888888888888888888888666",
",,,<<888888888888888888888888888888888888888888666",
",,,<<888888888888888888888888888888888888888888666",
",,,<<788888888888888888888888888888888888888888666",
",,,66666666666666666666666666666666666666666666666",
",,,66666666666666666666666666666666666666666666666",
"N,,,666666666666666666666666666666666666666666666N"
};
