/* XPM */
static char *result[] = {
/* columns rows colors chars-per-pixel */
"50 50 128 2 ",
"   c black",
".  c #020101",
"X  c #030101",
"o  c #030202",
"O  c #030302",
"+  c #060202",
"@  c #070402",
"#  c #0C0B07",
"$  c #0D0B08",
"%  c #0E0D09",
"&  c #0F0D09",
"*  c #100807",
"=  c #130D06",
"-  c #190D0B",
";  c #1A0D0B",
":  c #171008",
">  c #1B130A",
",  c #1A170F",
"<  c #1E160C",
"1  c #1A1710",
"2  c #22180E",
"3  c #241A0F",
"4  c #261C11",
"5  c #221E14",
"6  c #231F15",
"7  c #291E12",
"8  c #262116",
"9  c #262216",
"0  c #332618",
"q  c #392C1C",
"w  c #3B2D1D",
"e  c #383221",
"r  c #3F3120",
"t  c #3F3826",
"y  c #4C2721",
"u  c #4D2821",
"i  c #413120",
"p  c #423321",
"a  c #463623",
"s  c #473724",
"d  c #403926",
"f  c #613229",
"g  c #66342B",
"h  c #67352C",
"j  c #4E452E",
"k  c #4E462F",
"l  c #5A462F",
"z  c #5B4730",
"x  c #604B33",
"c  c #665036",
"v  c #685037",
"b  c #6B5339",
"n  c #6C5439",
"m  c #6F553B",
"M  c #6F563B",
"N  c #745B3E",
"B  c #716443",
"V  c #726644",
"C  c #746745",
"Z  c #756845",
"A  c #874539",
"S  c #904A3D",
"D  c #A85647",
"F  c #AC5849",
"G  c #AD594A",
"H  c #816546",
"J  c #816646",
"K  c #836747",
"L  c #846748",
"P  c #957552",
"I  c #967653",
"U  c #997954",
"Y  c #9A7955",
"T  c #9F7E58",
"R  c #A07E58",
"E  c #E34141",
"W  c #FD4848",
"Q  c #9B8A5C",
"!  c #9D8B5D",
"~  c #AA8A4D",
"^  c #A9865E",
"/  c #AA865E",
"(  c #AC885F",
")  c #AD8960",
"_  c #AE8960",
"`  c #A89564",
"'  c #A99664",
"]  c #B79065",
"[  c #B79166",
"{  c #BC9569",
"}  c #BD9669",
"|  c #BF976A",
" . c #BF976B",
".. c #C0986B",
"X. c #C59C6B",
"o. c #C39A6D",
"O. c #C49A6D",
"+. c #C59A6D",
"@. c #C69B6C",
"#. c #C69A6D",
"$. c #C69B6D",
"%. c #C49B6E",
"&. c #C59B6E",
"*. c #C69B6E",
"=. c #C79B6E",
"-. c #C49C6C",
";. c #C59C6C",
":. c #C49D6C",
">. c #C49C6D",
",. c #C59C6D",
"<. c #C49D6D",
"1. c #C69C6C",
"2. c #C49C6E",
"3. c #C59C6E",
"4. c #C59C6F",
"5. c #C59D6F",
"6. c #C69C6F",
"7. c #C69D6F",
"8. c #FD826B",
"9. c #FF836C",
"0. c #C5AF75",
"q. c #C7B176",
"w. c #F4C66E",
"e. c #DDC483",
"r. c #DEC584",
"t. c #F0D58F",
"y. c #F1D78F",
"u. c #FBDF95",
/* pixels */
",.,.;.X.X.X.;.;.;.;.;.;.-.-.>.>.>.>.2.2.2.2.2.2.3.3.3.3.3.&.*.*.=.*.*.&.O.O.O.O.O.%.4.4.4.7.7.7.5.5.",
",.,.;.X.X.X.;.;.;.;.;.;.;.-.>.>.>.>.>.2.2.2.2.2.3.3.3.3.&.&.*.=.=.*.*.&.+.O.O.O.O.%.&.4.4.6.7.7.5.5.",
"$.$.1.;.;.;.1.1.1.;.;.;.;.;.-.:.:.<.>.>.2.2.2.2.3.3.&.*.*.*.=.=.=.*.*.*.+.+.+.+.+.+.*.*.*.3.3.3.5.5.",
"$.$.@.;.;.;.1.@.@.;.;.;.;.;.;.:.:.<.>.>.2.2.2.2.3.3.&.*.*.=.=.=.=.=.=.=.#.+.+.+.+.+.*.=.*.&.&.3.5.5.",
"$.$.@.;.;.;.@.@.@.;.;.;.;.;.;.:.:.<.>.>.2.2.2.2.3.3.&.*.*.=.=.=.=.=.=.=.#.+.+.+.+.+.*.=.*.&.&.3.5.5.",
"$.$.@.;.;.  = @.@.;.;.;.;.;.;.:.:.<.>.>.2.2.2.2.3.3.&.*.*.=.=.=.=.=.=.=.#.+.+.+.+.+.*.=         5.5.",
"$.    w.w.      @.;.;.;.;.;.;.-.<.<.>.2.2.2.2.2.3.3.&.*.*.=.=.=.=.=.=.=.#.+.+.+.+.+.              5.",
"$.2   w.w.w.    v ,.,.,.,.,.,.>.>.>.2.2.2.2.2.2.3.3.&.*.*.*.*.*.*.*.*.*.+.+.+.+.+.m     w.w.w.    r ",
"I ~ w.w.w.w.w.    ,.,.,.,.,.,.,.,.3.3.3.3.3.3.3.3.3.3.&.&.&.&.&.&.&.&.&.&.&.&.&.&.    w.w.w.w.w.    ",
"    w.w.w.w.w.    ,.,.,.,.,.,.,.3.3.3.3.3.3.3.3.3.3.3.&.&.&.&.&.&.&.&.&.&.&.&.&.&.    w.w.w.w.w.    ",
"    w.w.w.w.w.    3.3.3.3.3.3.3.3.3.3.3.3.3.3.3.3.3.3.3.3.3.3.3.3.3.3.3.3.3.3.3.3.    w.w.w.w.w.    ",
")     w.w.w.    ..3.3.3.3.3.3.3.3.3.3.3.3.3.3.3.3.3.3.3.3.3.3.3.3.3.3.3.3.3.3.3.3...    w.w.w.    ) ",
"3.@             3.3.3.3.3.3.3.3.3.3.3.3.3.3.3.3.3.3.3.3.3.3.3.3.3.3.3.3.3.3.3.3.3.3.            @ 3.",
"3.3.              0 p 3.3.3.3.3.3.3.3.3.3.3.3.3.3.3.3.3.3.3.3.3.3.3.3.3.3.3.3.i 0               3.3.",
"3.3.    u.              3.3.3.3.3.3.3.3.3.3.3.3.3.3.3.3.3.3.3.3.3.3.3.3.3.3.              u.    3.3.",
"3.3.    u.    c   u *     o.3.3.3.3.3.3.3.3.3.3.3.3.3.3.3.3.3.3.3.3.3.3.o.    * y   M     u.    3.3.",
"3.3.    u.    P     9.h       3.3.3.3.3.3.3.3.3.3.3.3.3.3.3.3.3.3.3.3.      g 9.    Y     u.    3.3.",
"3.3.    u.    3.      9.8.      _ 3.3.3.3.3.3.3.3.3.3.3.3.3.3.3.3._       8.9.      3.    u.    3.3.",
"3.3.    u.    3.3.      9.9.        7 3.3.3.3.3.3.3.3.3.3.3.3.7         9.9.      3.3.    u.    3.3.",
"3.3.    u.    3.3.3.      ; 9.9.              ( { { (               9.9.-       3.3.3.    u.    3.3.",
"3.3.    u.    3.3.3.3.^       D 9.9.S                         A 9.9.F       / 3.3.3.3.    u.    3.3.",
"3.3.    u.    3.3.3.3.3.3.        X 9.9.9.9.9.G f f G 9.9.9.9.9..         3.3.3.3.3.3.    u.    3.3.",
"3.3.    u.    3.3.3.3.3.3.3.3.            * 8.9.9.9.9.8.*             3.3.3.3.3.3.3.3.    u.    3.3.",
"3.3.    u.    3.3.3.3.3.3.3.3.3.3.|                             } 3.3.3.3.3.3.3.3.3.3.    u.    3.3.",
"3.3.  $ u.    3.3.3.3.3.3.3.3.3.3.3.3.3.3.3.N         N 3.3.3.3.3.3.3.3.3.3.3.3.3.3.3.    u.#   3.3.",
"3.3.  6 u.o   3.3.3.3.3.3.3.3.3.3.3.3.3.3.3.3.3.3.3.3.3.3.3.3.3.3.3.3.3.3.3.3.3.3.3.3.  O u.5   3.3.",
"3.3.  e u.%   3.3.3.3.3.3.3.3.3.3.3.3.3.3.3.3.3.3.3.3.3.3.3.3.3.3.3.3.3.3.3.3.3.3.3.3.  & u.e   3.3.",
"3.3.  k u.,   3.3.3.3.3.3.3.3.3.3.3.3.3.3.3.3.3.3.3.3.3.3.3.3.3.3.3.3.3.3.3.3.3.3.3.3.  1 u.j   3.3.",
"3.]   V u.8   3.3.3.3.3.3.3.3.3.3.3.3.3.3.3.3.3.3.3.3.3.3.3.3.3.3.3.3.3.3.3.3.3.3.3.3.  9 u.B   [ 3.",
"3.T   ! u.t    .3.3.3.3.3.3.3.3.3.3.3.3.3.3.3.3.3.3.3.3.3.3.3.3.3.3.3.3.3.3.3.3.3.3.|   d u.Q   R 3.",
"3.K   q.u.C   _ 3.3.3.3.3.3.3.3.3.3.3.3.3.3.3.3.3.3.3.3.3.3.3.3.3.3.3.3.3.3.3.3.3.3.)   Z u.0.  L 3.",
"3.z   y.u.`   Y 3.3.3.3.3.3.3.3.3.3.3.3.3.3.3.3.3.3.3.3.3.3.3.3.3.3.3.3.3.3.3.3.3.3.U   ' u.t.  z 3.",
"3.s   u.u.e.  J 3.3.3.3.<                                                 > 3.3.3.3.H   r.u.u.  s 3.",
"3.q   u.u.u.  n 3.3.3.<                                                     > 3.3.3.b   u.u.u.  w 3.",
"3.7   u.u.u.  z 3.3.:     W W W W W W W W W W W W W W W W W W W W W W W W     = 3.3.l   u.u.u.  7 3.",
"3.@   u.u.u.  s 3.:     W W W W W W W W W W W W W W W W W W W W W W W W W W     = 3.a   u.u.u.  @ 3.",
"3.    u.u.u.  4 <     W W W W W W W W W W W W W W W W W W W W W W W W W W W W     > 3   u.u.u.    3.",
"3.    u.u.u.        W W W W W W W W W W W W W W W W W W W W W W W W W W W W W W         u.u.u.    3.",
"3.    u.u.u.      W W W W W W W W W W W W W W W W W W W W W W W W W W W W W W W W       u.u.u.    3.",
"3.    u.u.u.    W W W W W W W W W W W W W W W W W W W W W W W W W W W W W W W W W W     u.u.u.    3.",
"3.    u.u.u.    W W W W W W W W W W W W W W W W W W W W W W W W W W W W W W W W W W     u.u.u.    3.",
"3.    u.u.u.    W W W W W W W W W W W W W W W W W W W W W W W W W W W W W W W W W W     u.u.u.    3.",
"3.    u.u.u.    W W W W W W W W W W W W W W W W W W W W W W W W W W W W W W W W W W     u.u.u.    3.",
"3.                                                                  W W E   W +                   3.",
"3.                                                                  3.3.x   3.                    3.",
"3.3.3.3.3.3.3.3.3.3.3.3.3.3.3.3.3.3.3.3.3.3.3.3.3.3.3.3.3.3.3.3.3.3.3.3.3.3.3.3.3.3.3.3.3.3.3.3.3.3.",
"3.3.3.3.3.3.3.3.3.3.3.3.3.3.3.3.3.3.3.3.3.3.3.3.3.3.3.3.3.3.3.3.3.3.3.3.3.3.3.3.3.3.3.3.3.3.3.3.3.3.",
"3.3.3.3.3.3.3.3.3.3.3.3.3.3.3.3.3.3.3.3.3.3.3.3.3.3.3.3.3.3.3.3.3.3.3.3.3.3.3.3.3.3.3.3.3.3.3.3.3.3.",
"3.3.3.3.3.3.3.3.3.3.3.3.3.3.3.3.3.3.3.3.3.3.3.3.3.3.3.3.3.3.3.3.3.3.3.3.3.3.3.3.3.3.3.3.3.3.3.3.3.3.",
"3.3.3.3.3.3.3.3.3.3.3.3.3.3.3.3.3.3.3.3.3.3.3.3.3.3.3.3.3.3.3.3.3.3.3.3.3.3.3.3.3.3.3.3.3.3.3.3.3.3."
};
