/* XPM */
static char *result[] = {
/* columns rows colors chars-per-pixel */
"50 50 44 1 ",
"  c #6D4C41",
". c #755340",
"X c #85613D",
"o c #8C673C",
"O c #8E683B",
"+ c #916C3B",
"@ c #926C3B",
"# c #A17938",
"$ c #AA8037",
"% c #AB8137",
"& c #C99B31",
"* c #C99C31",
"= c #EEBC2B",
"- c #EFBC2B",
"; c #F2BE2A",
": c #F4C12A",
"> c #F8C429",
", c #FCC828",
"< c #FFCA28",
"1 c #FCC82F",
"2 c #FBC832",
"3 c #EEBC47",
"4 c #EFBC48",
"5 c #C59C6B",
"6 c #C49A6D",
"7 c #C59A6D",
"8 c #C69B6C",
"9 c #C69B6D",
"0 c #C49B6E",
"q c #C59B6E",
"w c #C69B6E",
"e c #C79B6E",
"r c #C49C6C",
"t c #C59C6C",
"y c #C49C6D",
"u c #C59C6D",
"i c #C69C6C",
"p c #C49C6E",
"a c #C59C6E",
"s c #C59D6E",
"d c #C59C6F",
"f c #C59D6F",
"g c #C69C6F",
"h c #C69D6F",
/* pixels */
"uut555ttttttrryyyypp2<<<<<<<<2wwewwq666660dddhhhff",
"uut555tttttttryy3<<<<<<<<<<<<<<<<4wq766660qddghhff",
"99itttiiittttt<<<<<<<<<<<<<<<<<<<<<<777777wwwaaaff",
"998ttti88ttt<<<<<<<<<<<<<<<<<<<<<<<<<<7777wewqqaff",
"998ttt888tt<<<<<<<<<<<<<<<<<<<<<<<<<<<<777wewqqaff",
"998ttt8881<<<<<<<<<<<<<<<<<<<<<<<<<<<<<<17wewqqaff",
"988ttt88<<<<<<<<<<<<<<<<<<<<<<<<<<<<<<<<<<wewqqaff",
"998ttt8<<<<<<<<<<<<<<<<<<<<<<<<<<<<<<<<<<<<wwqqasf",
"auuttt<<<<<<<<<<<<<<<<<<<<<<<<<<<<<<<<<<<<<<qqaaaa",
"aautt1<<<<<<<<<<<<<<<<<<<<<<<<<<<<<<<<<<<<<<1aaaaa",
"aauuu<<<<<<<<<<<<<<<<<<<<<<<<<<<<<<<<<<<<<<<<aaaaa",
"aauu<<<<<<<<<<<<<<<<<<<<<<<<<<<<<<<<<<<<<<<<<<aaaa",
"aau<<<<<<<<<<<<<<<<<<<<<<<<<<<<<<<<<<<<<<<<<<<<aaa",
"aaa<<<<<<<<<<<<<<<<<<<<<<<<<<<<<<<<<<<<<<<<<<<<aaa",
"aa<<<<<<<<<<<<<<<<<<<<<<<<<<<<<<<<<<<<<<<<<<<<<<aa",
"aa<<<<<<<<<<<<<<<<<<<<<<<<<<<<<<<<<<<<<<<<<<<<<<aa",
"a4<<<<<<<<<<<#    <<<<<<<<<<<<<<    #<<<<<<<<<<<4a",
"a<<<<<<<<<<<<     *<<<<<<<<<<<<*     <<<<<<<<<<<<a",
"a<<<<<<<<<<<&      <<<<<<<<<<<<      &<<<<<<<<<<<a",
"a<<<<<<<<<<<,      <<<<<<<<<<<<      ,<<<<<<<<<<<a",
"2<<<<<<<<<<<<     <<<<<<<<<<<<<<     <<<<<<<<<<<<2",
"<<<<<<<<<<<<<<   <<<<<<<<<<<<<<<<   <<<<<<<<<<<<<<",
"<<<<<<<<<<<<<<<<<<<<<<<<<<<<<<<<<<<<<<<<<<<<<<<<<<",
"<<<<<<<<<<<<<<<<<<<<<<<<<<<<<<<<<<<<<<<<<<<<<<<<<<",
"<<<<<<<<<<<<<<<<<<<<<<<<<<<<<<<<<<<<<<<<<<<<<<<<<<",
"<<<<<<<<<<<<<<<<<<<<<<<<<<<<<<<<<<<<<<<<<<<<<<<<<<",
"<<<<<<<<<<<<<<<<<<<<<<<<<<<<<<<<<<<<<<<<<<<<<<<<<<",
"<<<<<<<<<<<<<<<<<<<<<<<<<<<<<<<<<<<<<<<<<<<<<<<<<<",
"<<<<<<<<<<<<<<<<<<<<<<<<<<<<<<<<<<<<<<<<<<<<<<<<<<",
"2<<<<<<<<<<<<<<<<<<<<<<<<<<<<<<<<<<<<<<<<<<<<<<<<2",
"a<<<<<<<<<<<<<<<<<<<<<<<<<<<<<<<<<<<<<<<<<<<<<<<<a",
"a<<<<<<<<<<<<<<<<<<<<<<<<<<<<<<<<<<<<<<<<<<<<<<<<a",
"a<<<<<<<<<<<<<<<<<<<<<<<<<<<<<<<<<<<<<<<<<<<<<<<<a",
"a4<<<<<<<<<<<<$@<<<<<<<<<<<<<<<<<<+%<<<<<<<<<<<<4a",
"aa<<<<<<<<<<<;   <<<<<<<<<<<<<<<<   :<<<<<<<<<<<aa",
"aa<<<<<<<<<<<<    <<<<<<<<<<<<<<    <<<<<<<<<<<<aa",
"aaa<<<<<<<<<<<o     -<<<<<<<<=     O<<<<<<<<<<<aaa",
"aaa<<<<<<<<<<<<>                  ><<<<<<<<<<<<aaa",
"aaaa<<<<<<<<<<<<<                <<<<<<<<<<<<<aaaa",
"aaaaa<<<<<<<<<<<<<<            <<<<<<<<<<<<<<aaaaa",
"aaaaa1<<<<<<<<<<<<<<<<<X..X<<<<<<<<<<<<<<<<<1aaaaa",
"aaaaaa<<<<<<<<<<<<<<<<<<<<<<<<<<<<<<<<<<<<<<aaaaaa",
"aaaaaaa<<<<<<<<<<<<<<<<<<<<<<<<<<<<<<<<<<<<aaaaaaa",
"aaaaaaaa<<<<<<<<<<<<<<<<<<<<<<<<<<<<<<<<<<aaaaaaaa",
"aaaaaaaaa1<<<<<<<<<<<<<<<<<<<<<<<<<<<<<<1aaaaaaaaa",
"aaaaaaaaaaa<<<<<<<<<<<<<<<<<<<<<<<<<<<<aaaaaaaaaaa",
"aaaaaaaaaaaa<<<<<<<<<<<<<<<<<<<<<<<<<<aaaaaaaaaaaa",
"aaaaaaaaaaaaaa<<<<<<<<<<<<<<<<<<<<<<aaaaaaaaaaaaaa",
"aaaaaaaaaaaaaaaa4<<<<<<<<<<<<<<<<4aaaaaaaaaaaaaaaa",
"aaaaaaaaaaaaaaaaaaaa2<<<<<<<<2aaaaaaaaaaaaaaaaaaaa"
};
