/* XPM */
static char *result[] = {
/* columns rows colors chars-per-pixel */
"50 50 126 2 ",
"   c #001737",
".  c #021836",
"X  c #051B36",
"o  c #0C2034",
"O  c #0D2034",
"+  c #28342E",
"@  c #756B1E",
"#  c #4F4F26",
"$  c #00347B",
"%  c #124077",
"&  c #3B5B6F",
"*  c #204974",
"=  c #50696A",
"-  c #EB265F",
";  c #EE2A5F",
":  c #F3315E",
">  c #F7365D",
",  c #F9375D",
"<  c #FA395D",
"1  c #FE3D5C",
"2  c #FF3F5C",
"3  c #D20763",
"4  c #D40963",
"5  c #D40A63",
"6  c #D60D62",
"7  c #D91062",
"8  c #E21B60",
"9  c #D12464",
"0  c #FF455B",
"q  c #FC485D",
"w  c #F8535E",
"e  c #FF5958",
"r  c #FF5B58",
"t  c #CF4B65",
"y  c #CD6967",
"u  c #CC7269",
"i  c #EA7163",
"p  c #00AB5E",
"a  c #00DD7B",
"s  c #3FDD6E",
"d  c #29DD73",
"f  c #46DE6C",
"g  c #988416",
"h  c #C8A60C",
"j  c #D1AC0A",
"k  c #DDB407",
"l  c #DCB508",
"z  c #E4BA06",
"x  c #ECC004",
"c  c #F6C702",
"v  c #F7C702",
"b  c #FECD00",
"n  c #FFCD00",
"m  c #FFCE00",
"M  c #FFCE06",
"N  c #FDCC11",
"B  c #F8C929",
"V  c #EFC13F",
"C  c #ADA857",
"Z  c #88A465",
"A  c #FF8852",
"S  c #DAAF5C",
"D  c #DBAF5C",
"F  c #DBB25B",
"G  c #C8866B",
"H  c #C78E6C",
"J  c #C59C6B",
"K  c #C49A6D",
"L  c #C59A6D",
"P  c #C69A6D",
"I  c #C69B6D",
"U  c #C49B6E",
"Y  c #C59B6E",
"T  c #C69B6E",
"R  c #C79B6E",
"E  c #C49C6C",
"W  c #C59C6C",
"Q  c #C49D6C",
"!  c #C49C6D",
"~  c #C49D6D",
"^  c #C69D6D",
"/  c #C79F6D",
"(  c #C49C6E",
")  c #C59C6E",
"_  c #C59D6E",
"`  c #C59C6F",
"'  c #C59D6F",
"]  c #C69C6F",
"[  c #C69D6F",
"{  c #C59B70",
"}  c #C29A74",
"|  c #C3987C",
" . c #C9A06B",
".. c #D3A963",
"X. c #D2A964",
"o. c #D3A964",
"O. c #DFBB60",
"+. c #DEBA61",
"@. c #EEC141",
"#. c #FFD447",
"$. c #FFDE46",
"%. c #F8D84D",
"&. c #EDC956",
"*. c #EDCB57",
"=. c #F4D250",
"-. c #B379B3",
";. c #B072BB",
":. c #A24BDB",
">. c #A651D1",
",. c #A452D7",
"<. c #A657D4",
"1. c #A961CC",
"2. c #B760EA",
"3. c #7D91BF",
"4. c #008ADF",
"5. c #078BDF",
"6. c #2B8BDC",
"7. c #3E8CD8",
"8. c #5E8ECE",
"9. c #518CD2",
"0. c #628ECE",
"q. c #6A8FC9",
"w. c #B782A7",
"e. c #C19386",
"r. c #C09484",
"t. c #F6EFEA",
/* pixels */
"q 2 2 J J J W W W W W W E E ! ! ! ! ( ( ( ( ( ( ) ) 8.4.6.Y T T R T T Y K K K K K U ` ` ` [ [ 1.:.,.",
"2 2 2 2 2 2 W W W W W W W E ! ! ! ! ! ( ( ( ( ( ) ) 4.4.4.} T R R T T Y L K K K K U Y ` ` ] [ :.:.:.",
"2 2 2 2 2 2 2 - 3 W W W W W E Q Q ~ ! ! ( ( ( ( ) ) 7.4.4.4.4.0.R T T T L L L L L L T T T ) ) -.:.1.",
"2 2 2 2 2 2 3 3 3 3 3 w W W W Q Q ~ ! ! ( ( ( ( ) ) Y 4.4.4.4.4.R R R R P L L L L L T R T Y Y ) ' ' ",
"i 2 2 2 2 3 3 3 3 3 2 2 2 2 y Q Q ~ ! ! ( ( ( ( ) ) Y T { 4.4.R R R R R P L L L Z L T R T Y Y ) ' ' ",
"I 2 2 2 3 3 3 3 - 2 2 2 2 3 3 3 3 H ! ! ( ( ( ( ) ) Y T T R R R R R R R P L L p p p T R T Y Y ) ' ' ",
"I 2 2 3 3 3 3 2 2 2 2 2 3 3 3 3 : 2 2 2 $.$.n n n n n o.T R R R R R R R P L L p p p T R T Y Y ) ' ' ",
"I > 3 3 3 3 2 2 2 2 2 3 3 3 3 2 2 2 2 2 $.$.n n n n n n n n D T T T T T L L L L L L T T T Y Y ) _ ' ",
") 3 3 3 3 2 2 2 2 ; 3 3 3 3 2 2 2 2 2 2 $.$.n n n n n n n n n n V Y Y Y Y Y Y Y Y Y Y Y Y Y ) ) ) ) ",
") 3 3 3 2 2 2 2 4 3 3 3 3 2 2 2 2 2 2 $.$.$.n n n n n n n n n n n n Y Y Y Y Y Y Y Y Y Y Y ) ) ) ) ) ",
") u 6 2 2 2 2 3 3 3 3 3 2 2 2 2 2 A $.$.$.$.n n n n n n n n n n n n n M ) ) ) ) ) ) ) ) ) ) ) ) ) ) ",
") ) 2 2 2 2 3 3 3 3 8 2 2 2 2 2 $.$.$.$.$.$.n n n n n n n n n n n n n n n ) ) ) ) ) ) ) ) ) ) ) ) ) ",
") ) 2 2 2 3 3 3 3 1 2 2 2 2 2 $.$.$.$.$.$.$.n n n :.:.n n n n n n n n n n n ) ) ) ) ) ) ) ) ) ) ) ) ",
") ) 2 < 3 3 3 3 2 2 2 2 2 2 $.$.$.$.$.$.$.$.n n n :.:.>.n n n n n n n n n n n ) ) ) ) ) ) ) 3 3 T ) ",
") ) 5 3 3 3 3 2 2 2 2 2 2 $.$.$.$.$.$.$.$.$.n n n :.:.n n n n n n n n n n n n M ) ) ) ) ) ) 3 3 9 ) ",
") ) 3 3 3 3 2 2 2 2 2 r $.$.$.$.$.$.$.$.$.$.n n n n n n n n n n n n n n n n n n ) ) ) ) ) ) t 3 ) ) ",
") ) G 3 7 2 2 2 2 2 #.$.$.$.$.$.$.$.$.$.$.$.n n n n n n n n n n n n n n n n n n n ) ) ) ) ) ) ) ) ) ",
") ) ^ , 2 2 2 2 2 $.$.$.$.$.$.$.$.$.$.$.$.$.n n n n n n n n n n n n n n n n n n n @.) ) ) ) ) ) ) ) ",
") ) $.2 2 2 2 2 $.$.$.$.$.$.$.$.$.$.$.$.$.$.n n n n n n n n n n n n n n n n n n n n ) ) ) ) ) ) ) ) ",
") ) $.2 2 2 2 $.$.$.$.$.$.$.$.$.$.$.$.$.$.$.n n n n n n n n n n n n n n n n n n n n S ) ) ) ) ) ) ) ",
") $.$.e 2 0 $.$.$.$.$.$ $ $ $ $ $ $.$.$.$.$.n n n n n             h n n n n n n n n n ) ) ) ) ) ) ) ",
") $.$.$.$.$.$.$.$.% $ $ $ $ $ $ $ $ $.$.$.$.n n n n                   n n n n n n n n ) ) ) ) ) ) ) ",
") $.$.$.$.$.$.$.C $ $ $ $ $ $ $ $ $ $ $.$.$.n n n                     X n n n n n n n X.) ) ) ) ) ) ",
"=.$.$.$.$.$.$.$.$ $ $ = $.$.$.$.$ $ $ $ $.$.n n @       n n n n x       n n n n n n n n ) ) ) ) ) ) ",
"$.$.$.$.$.$.$.$.$ $ $ $.$.$.$.$.$.$ $ $ $.$.n n       n n n n n n O     j n n n n n n n ) ) ) ) ) ) ",
"$.$.$.$.$.$.$.$.$ $ $.$.$.$.$.$.$.* $ & $.$.n n k     n n n n n n n     n n n n n n n n ) ) ) ) ) ) ",
"$.$.$.$.$.$.$.$.$.$.$.$.$.$.$.$.$.$.$.$.$.$.n n n n n n n n n n n n n n n n n n n n n n ) ) ) ) ) ) ",
"$.$.$.$.$.$.$.$.$.$.$.$.$.$.$.$.$.$.$.$.$.$.n n n n n n n n n n n n n n n n n n n n n n ) ) ) ) ) ) ",
"$.$.$.$.$.$.$.$.$.$.$.$.$.$.$.$.$.$.$.$.$.$.n n n n n n n n n n n n n n n n n n n n n n ) ) ) ) ) ) ",
"$.$.$.$.$.$.$.$.$.$.$.$.$.$.$.$.$.$.$.$.$.$.n n n n n n n n n n n n n n n n n n n n n n 4.4.4.q.) ) ",
"$.$.$.$.$.$.$.$.$.$.$.$.$.$.$.$.$.$.$.$.$.$.n   + n n n n n n n n n n n n n n n n n n n 4.4.4.4.5.) ",
"$.$.$.$.$.$.$.$.$.$.$.$.$.$.$.$.$.$.$.$.$.$.X     . n n n n n n n n n n n n n n n n n n 4.4.4.4.4.' ",
"&.$.$.$.$.$.$.$.$.$.$.f $.$.$.$.$.$.$.$.$.$.v       b n n n n n n n n n n n n n n n n n 4.4.4.4.4.4.",
") $.$.$.$.$.$.$.$.$.a a a $.$.$.$.$.$.$.$.$.n #       n n n n n n n n n n n n n n n n  .4.4.4.4.4.4.",
") $.$.$.$.$.$.s a a a a a $.$.$.$.$.$.$.$.$.n n       t.t.t.t.4.4.4.4.4.4.4.4.4.4.4.4.4.4.4.4.4.4.4.",
") $.$.$.$.$.$.a a a a a $.$.$.$.$.$.$.$.$.$.n n       t.t.t.t.4.4.4.4.4.4.4.4.4.4.4.4.4.4.4.4.4.4.4.",
") ) $.$.$.$.$.$.a a d $.$.$.$.$.$.$.$.$.$.$.n n g     t.t.t.t.4.4.4.4.4.4.4.4.4.4.4.4.4.4.4.4.4.4.3.",
") ) $.$.$.$.$.$.$.$.$.$.$.$.$.$.$.$.$.$.$.$.n n o     t.t.t.t.4.4.4.4.4.4.4.4.4.4.4.4.4.4.4.4.4.4.) ",
") ) ) $.$.$.$.$.$.$.$.$.$.$.$.$.$.$.$.$.$.$.n n       t.t.t.t.4.4.4.4.4.4.4.4.4.4.4.4.4.4.4.4.4.) ) ",
") ) ) $.$.$.$.$.$.$.$.$.$.$.$.$.$.$.$.$.$.$.n l       t.t.t.t.4.4.4.4.4.4.4.4.4.4.4.4.4.4.4.9.) ) ) ",
") ) ) ) $.$.$.$.$.$.$.$.$.$.$.$.$.$.$.$.$.$.z       c n n n n n n n n n n n n n ) ) ) ) ) ) ) ) ) ) ",
") ) ) ) ) $.$.$.$.$.$.$.$.$.$.$.$.$.$.$.$.$.        n n n n n n n n n n n n n F ) ) ) ) ) ) ) ) ) ) ",
") ) 2.2.) O.$.$.$.$.$.$.$.$.$.$.$.$.$.$.$.$.      n n n n n n n n n n n n n m ) ) ) ) ) ) ) ) ) ) ) ",
") 2.2.2.) ) %.$.$.$.$.$.$.$.$.$.$.$.$.$.$.$.n n n n n n n n n n n n n n n n ) ) ) ) ) ) ) ) ) ) ) ) ",
") ) 2.2.) ) ) +.$.$.$.$.$.$.$.$.$.$.$.$.$.$.n n n n n n n n n n n n n n N ) ) ) ) ) ) ) ) ) ) ) ) ) ",
") ) ) ) ) ) ) ) ) $.$.$.$.$.$.$.$.$.$.$.$.$.n n n n n n n n n n n n n ..) ) ) ) ) ) ) <.:.:.) ) ) ) ",
") ) ) ) ) ) ) ) ) ) $.$.$.$.$.$.$.$.$.$.$.$.n n n n n n n n n n n n ) ) ) ) ) ) ) ) ;.:.:.:.) ) ) ) ",
") ) ) ) ) ) ) ) ) ) ) ) $.$.$.$.$.$.$.$.$.$.n n n n n n n n n n / ) ) ) ) ) ) ) | :.:.:.:.:.) ) ) ) ",
") ) ) ) ) ) ) ) ) ) ) ) ) ) $.$.$.$.$.$.$.$.n n n n n n n n ) ) ) ) ) ) ) ) ) ) e.:.:.:.:.) ) ) ) ) ",
") ) ) ) ) ) ) ) ) ) ) ) ) ) ) ) ) *.$.$.$.$.n n n n B ) ) ) ) ) ) ) ) ) ) ) ) ) ) r.w.) ) ) ) ) ) ) "
};
